<?xml version="1.0" encoding="utf-8"?>
<!-- Generator: Adobe Illustrator 21.0.0, SVG Export Plug-In . SVG Version: 6.00 Build 0)  -->
<svg version="1.1" id="icon" xmlns="http://www.w3.org/2000/svg" xmlns:xlink="http://www.w3.org/1999/xlink" x="0px" y="0px"
	 viewBox="0 0 32 32" style="enable-background:new 0 0 32 32;" xml:space="preserve">
<style type="text/css">
	.st0{fill:#FFFFFF;}
</style>
<path class="st0" d="M17.7,16l7.7-7.7c0.5-0.5,0.5-1.2,0-1.7s-1.2-0.5-1.7,0L16,14.3L8.3,6.7c-0.5-0.5-1.2-0.5-1.7,0s-0.5,1.2,0,1.7
	l7.7,7.7l-7.7,7.7c-0.5,0.5-0.5,1.2,0,1.7c0.2,0.2,0.5,0.4,0.8,0.4s0.6-0.1,0.8-0.4l7.7-7.7l7.7,7.7c0.2,0.2,0.5,0.4,0.8,0.4
	s0.6-0.1,0.8-0.4c0.5-0.5,0.5-1.2,0-1.7L17.7,16z"/>
</svg>
